<?xml version="1.0" standalone="no"?>
<!DOCTYPE svg PUBLIC "-//W3C//DTD SVG 20010904//EN"
 "http://www.w3.org/TR/2001/REC-SVG-20010904/DTD/svg10.dtd">
<svg version="1.0" xmlns="http://www.w3.org/2000/svg"
 width="5334.000000pt" height="3205.000000pt" viewBox="0 0 5334.000000 3205.000000"
 preserveAspectRatio="xMidYMid meet">

<g transform="translate(0.000000,3205.000000) scale(0.100000,-0.100000)"
fill="whitesmoke" stroke="none">
<path d="M18572 19297 l-622 -622 147 -147 c82 -81 281 -280 443 -442 l295
-296 -163 -163 -162 -162 180 -180 180 -180 163 163 162 162 185 -185 185
-185 -273 -273 -272 -272 -820 820 -820 820 -1068 -1068 -1067 -1067 1067
-1067 1068 -1068 822 823 823 822 270 -270 270 -270 -185 -185 -185 -185 -162
162 -163 163 -182 -183 -183 -182 163 -163 162 -162 -440 -440 -440 -440 623
-623 622 -622 622 622 623 623 -327 327 -328 328 -182 -182 -183 -183 147
-147 148 -148 -260 -260 -260 -260 -259 259 c-191 191 -256 262 -249 272 4 8
286 291 626 629 l617 615 365 -365 365 -365 918 918 917 917 6623 0 6622 0 0
-560 0 -560 295 0 295 0 0 560 0 560 580 0 580 0 0 -1035 0 -1035 300 0 300 0
0 1330 0 1330 -7797 0 -7798 0 -917 917 -918 918 -368 -368 -367 -367 -628
628 -627 627 263 263 262 262 263 -263 262 -262 -150 -150 -150 -150 180 -180
180 -180 330 330 330 330 -623 623 -622 622 -623 -623z m-915 -2139 l273 -273
-432 -432 -433 -433 430 -430 430 -430 -250 -252 c-138 -139 -261 -261 -273
-272 l-24 -19 -704 704 -704 704 702 702 c387 387 705 703 708 703 3 0 128
-123 277 -272z m3711 -431 l702 -702 -705 -705 -705 -705 -185 185 -185 185
517 517 518 518 -520 520 -520 520 185 185 c102 102 187 185 190 185 3 0 321
-316 708 -703z m-1105 -1039 l-338 -338 -337 337 -338 338 337 337 338 338
337 -337 338 -338 -337 -337z m-1720 584 l247 -247 -250 -250 -250 -250 -250
250 -250 250 247 247 c137 137 250 248 253 248 3 0 116 -111 253 -248z"/>
<path d="M31452 17443 c-183 -399 -330 -728 -328 -731 5 -5 297 -3 305 3 4 2
27 53 51 114 32 81 49 111 65 115 26 7 514 7 540 0 14 -4 32 -36 64 -115 25
-60 48 -112 53 -115 9 -6 298 -7 304 -1 2 2 -77 181 -176 398 -100 217 -249
544 -332 727 l-152 332 -31 0 -32 0 -331 -727z m458 -35 l89 -213 -181 -3
c-100 -1 -182 -1 -184 1 -2 2 34 93 80 203 45 109 86 208 89 218 4 10 10 16
13 13 3 -3 45 -101 94 -219z"/>
<path d="M32932 18157 c-163 -20 -284 -103 -345 -234 -18 -40 -22 -65 -22
-158 0 -99 3 -116 27 -168 53 -113 161 -188 418 -291 196 -79 259 -137 247
-227 -7 -55 -39 -93 -99 -119 -163 -70 -363 -10 -475 142 -19 27 -39 48 -44
48 -7 0 -157 -116 -193 -150 -13 -12 79 -125 143 -176 31 -25 88 -60 126 -78
293 -141 693 -47 801 188 72 159 50 327 -61 445 -63 68 -142 113 -329 190
-241 100 -293 141 -282 224 9 80 88 123 208 115 96 -6 165 -37 223 -99 l45
-48 87 71 c49 39 92 74 97 79 14 13 -38 84 -96 130 -123 98 -294 140 -476 116z"/>
<path d="M35400 18160 c-295 -38 -534 -252 -611 -548 -28 -105 -28 -277 0
-383 61 -238 237 -433 458 -510 89 -31 149 -40 259 -40 286 2 527 152 649 406
64 133 79 209 72 368 -5 140 -24 222 -74 322 -137 270 -442 426 -753 385z
m263 -299 c71 -28 164 -112 206 -184 90 -159 86 -378 -10 -529 -149 -233 -483
-265 -667 -63 -229 250 -131 685 177 787 77 25 213 20 294 -11z"/>
<path d="M36952 18160 c-301 -42 -535 -256 -608 -556 -23 -93 -23 -285 1 -374
37 -143 105 -260 206 -356 142 -134 303 -196 509 -195 204 1 342 57 519 208
l34 29 -77 112 -78 113 -37 -34 c-190 -172 -418 -205 -601 -86 -157 102 -233
323 -181 528 37 147 107 238 228 298 65 32 86 37 162 41 127 6 253 -36 355
-117 21 -17 42 -31 46 -31 14 0 152 201 147 214 -9 23 -130 108 -202 142 -38
18 -95 40 -126 48 -75 19 -218 27 -297 16z"/>
<path d="M27938 18137 c-125 -43 -210 -119 -252 -227 -27 -68 -32 -184 -12
-254 44 -150 149 -235 428 -345 192 -76 258 -131 258 -213 0 -80 -46 -127
-151 -154 -161 -41 -330 27 -439 178 l-26 36 -101 -81 -101 -82 16 -29 c28
-49 134 -150 197 -188 33 -20 96 -49 140 -64 74 -26 92 -28 230 -28 136 0 157
2 223 26 191 69 297 198 309 377 10 144 -42 255 -160 344 -66 50 -115 74 -284
143 -147 59 -225 103 -249 140 -21 31 -21 96 -1 127 31 47 72 62 172 62 76 0
98 -4 146 -26 31 -15 76 -47 99 -72 l43 -46 94 77 c51 41 93 82 93 90 0 27
-123 138 -190 170 -98 47 -169 62 -300 62 -93 0 -128 -5 -182 -23z"/>
<path d="M29743 18146 c-106 -34 -199 -119 -228 -206 -33 -98 -13 -247 46
-348 10 -18 19 -37 19 -41 0 -4 -24 -24 -54 -45 -83 -57 -163 -147 -198 -222
-76 -162 -38 -357 94 -479 97 -90 191 -124 342 -125 135 0 244 35 354 114 l44
31 21 -25 c12 -14 33 -40 47 -57 l25 -32 157 -2 c87 -2 160 -1 162 2 3 2 -49
71 -115 152 l-120 147 39 52 c52 71 122 183 122 195 0 10 -183 143 -197 143
-4 0 -28 -34 -53 -76 -75 -126 -56 -132 -231 83 -187 230 -223 281 -245 345
-27 82 -3 140 70 168 59 22 156 -14 237 -87 l37 -33 61 96 c34 53 60 102 57
109 -8 22 -133 106 -189 127 -67 27 -242 35 -304 14z m126 -961 c149 -183 147
-171 33 -227 -103 -51 -209 -50 -277 4 -64 50 -84 162 -44 245 22 46 125 145
146 141 6 -2 70 -75 142 -163z"/>
<path d="M34003 18136 c-89 -29 -129 -54 -183 -112 -78 -85 -113 -212 -91
-331 31 -170 134 -263 409 -372 191 -76 261 -122 282 -186 24 -72 -28 -155
-117 -186 -55 -20 -197 -18 -258 4 -65 22 -139 79 -195 149 l-44 56 -98 -80
c-54 -43 -98 -83 -98 -87 0 -12 37 -59 89 -114 125 -132 289 -197 496 -197
226 1 408 97 488 259 30 62 32 72 32 176 0 99 -3 116 -27 168 -54 114 -164
194 -396 286 -150 60 -215 95 -250 136 -52 59 -40 136 27 178 30 18 50 22 126
22 82 0 97 -3 158 -33 41 -21 79 -48 98 -72 l32 -39 60 47 c33 26 78 63 100
82 l40 36 -61 66 c-111 118 -241 168 -437 167 -87 0 -125 -5 -182 -23z"/>
<path d="M26264 18132 l-141 -3 -164 -304 c-90 -167 -166 -304 -169 -305 -5 0
-145 254 -310 562 l-25 48 -167 0 -168 0 49 -82 c27 -46 144 -245 260 -443
l211 -359 0 -271 0 -270 150 3 150 3 0 270 0 269 256 436 c141 239 254 437
251 440 -8 8 -38 9 -183 6z"/>
<path d="M22860 17420 l0 -710 150 0 150 0 0 308 c1 243 3 304 13 291 61 -80
512 -599 521 -599 74 -2 369 0 372 2 1 2 -143 164 -322 360 -178 196 -324 362
-324 367 0 6 131 154 292 329 160 174 300 327 311 340 l20 22 -191 0 -192 0
-250 -286 -250 -285 0 285 0 286 -150 0 -150 0 0 -710z"/>
<path d="M24130 17420 l0 -710 485 0 485 0 0 130 0 130 -335 0 -335 0 0 145 0
145 285 0 285 0 0 130 0 130 -285 0 -285 0 0 175 0 175 325 0 325 0 0 130 0
130 -475 0 -475 0 0 -710z"/>
<path d="M26520 17420 l0 -710 485 0 485 0 0 130 0 130 -337 2 -338 3 -3 143
-3 142 291 0 290 0 0 130 0 130 -287 2 -288 3 0 170 0 170 328 3 327 2 0 130
0 130 -475 0 -475 0 0 -710z"/>
<path d="M37840 17008 c-63 -32 -90 -77 -90 -147 0 -118 97 -191 210 -161 152
41 169 246 26 311 -54 25 -92 24 -146 -3z"/>
<path d="M24309 15417 c-120 -41 -199 -112 -253 -226 -29 -62 -31 -73 -31
-181 0 -109 2 -119 32 -183 39 -82 117 -163 193 -200 129 -63 294 -61 422 4
61 31 150 125 182 192 32 65 46 177 33 267 -18 128 -114 252 -244 312 -58 27
-80 32 -167 35 -86 3 -111 0 -167 -20z m244 -123 c60 -20 131 -84 165 -148 22
-43 27 -64 27 -131 0 -68 -4 -89 -28 -137 -139 -283 -556 -180 -551 137 1 119
83 242 184 278 59 20 145 21 203 1z"/>
<path d="M25696 15429 c-109 -26 -235 -130 -282 -234 -33 -72 -46 -167 -35
-250 25 -177 160 -318 339 -356 70 -14 194 -6 253 17 284 111 372 468 171 694
-100 113 -286 166 -446 129z m255 -156 c253 -142 173 -530 -115 -560 -88 -9
-158 18 -225 85 -86 86 -111 190 -76 310 21 70 99 154 168 182 77 30 177 23
248 -17z"/>
<path d="M34956 15429 c-65 -15 -153 -69 -206 -125 -185 -196 -145 -526 81
-661 151 -90 388 -81 521 21 23 17 45 42 48 54 3 12 4 79 2 147 l-3 125 -70 0
-69 0 0 -113 0 -114 -38 -17 c-82 -37 -209 -37 -286 -1 -19 9 -55 38 -80 65
-126 135 -90 362 73 453 43 25 69 31 131 35 85 5 133 -6 193 -45 22 -13 40
-23 41 -21 23 30 66 99 66 105 0 16 -85 64 -149 83 -68 21 -185 25 -255 9z"/>
<path d="M22880 15005 l0 -415 215 0 c292 0 343 13 409 107 34 49 45 129 26
188 -13 40 -75 115 -94 115 -7 0 -20 6 -31 14 -17 12 -16 14 12 31 76 45 100
172 48 260 -31 53 -82 90 -145 104 -25 6 -134 11 -242 11 l-198 0 0 -415z
m400 272 c25 -8 40 -23 53 -49 23 -46 16 -86 -19 -119 -24 -22 -35 -24 -160
-27 l-134 -4 0 106 0 106 113 -1 c61 0 128 -5 147 -12z m54 -352 c53 -25 72
-71 54 -129 -20 -62 -45 -70 -220 -74 l-148 -3 0 117 0 117 138 -5 c105 -4
147 -9 176 -23z"/>
<path d="M26780 15005 l0 -415 70 0 70 0 1 98 c1 53 1 104 0 112 -1 8 27 46
61 83 l63 69 135 -181 135 -180 83 0 c45 -1 82 2 82 5 0 5 -279 395 -321 450
-7 8 98 130 299 347 l26 27 -91 0 -92 0 -182 -195 c-101 -107 -187 -195 -191
-195 -4 0 -8 88 -8 195 l0 195 -70 0 -70 0 0 -415z"/>
<path d="M27980 15005 l0 -415 70 0 70 0 0 118 1 117 59 63 58 63 119 -157
c172 -229 144 -205 240 -202 l82 3 -165 228 c-91 125 -164 232 -162 237 2 5
75 87 163 182 l159 173 -89 3 -89 3 -110 -118 c-61 -65 -145 -154 -188 -198
l-78 -80 0 198 0 197 -70 0 -70 0 0 -415z"/>
<path d="M29170 15005 l0 -415 300 0 300 0 0 65 0 65 -230 0 -230 0 0 110 0
110 200 0 200 0 0 65 0 65 -200 0 -200 0 0 110 0 110 224 0 c208 0 224 1 221
18 -2 9 -4 38 -4 65 l-1 47 -290 0 -290 0 0 -415z"/>
<path d="M30300 15005 l0 -415 300 0 300 0 0 65 0 65 -225 0 -225 0 0 110 0
110 194 0 194 0 4 65 3 65 -197 0 -198 0 0 110 0 110 220 0 220 0 0 65 0 65
-295 0 -295 0 0 -415z"/>
<path d="M31440 15005 l0 -415 70 0 70 0 0 119 0 118 138 6 c162 6 223 23 287
79 60 53 80 109 79 220 0 76 -4 94 -30 145 -23 46 -41 65 -81 89 -73 44 -140
54 -350 54 l-183 0 0 -415z m393 274 c21 -5 52 -23 70 -38 28 -26 32 -35 35
-97 4 -82 -16 -128 -69 -159 -28 -17 -56 -21 -161 -24 l-128 -3 0 166 0 166
108 0 c59 0 124 -5 145 -11z"/>
<path d="M32610 15005 l0 -415 70 0 70 0 0 415 0 415 -70 0 -70 0 0 -415z"/>
<path d="M33338 15068 c-2 -194 -2 -381 0 -415 l3 -63 69 0 70 0 2 297 3 297
230 -297 230 -297 77 0 78 0 0 415 0 415 -70 0 -70 0 -2 -306 -3 -306 -238
306 -238 306 -69 0 -70 0 -2 -352z"/>
<path d="M24620 14065 c-46 -21 -87 -61 -112 -109 -16 -31 -19 -53 -16 -107 4
-83 39 -140 107 -176 58 -30 154 -32 210 -4 151 77 162 284 20 378 -52 34
-153 43 -209 18z m162 -72 c125 -74 73 -278 -72 -278 -146 0 -203 191 -81 272
42 28 110 30 153 6z"/>
<path d="M25252 14067 c-52 -19 -103 -66 -124 -115 -16 -36 -19 -59 -15 -110
6 -79 41 -134 106 -169 80 -42 213 -26 261 32 11 13 10 19 -10 40 l-22 24 -28
-20 c-110 -82 -260 13 -230 147 23 100 154 146 235 83 l26 -21 25 23 c23 22
23 23 6 42 -44 50 -154 71 -230 44z"/>
<path d="M27105 14061 c-47 -22 -99 -74 -115 -116 -22 -54 -15 -140 14 -189
43 -74 103 -107 197 -107 195 -1 291 229 154 366 -64 64 -169 84 -250 46z
m169 -70 c45 -30 66 -70 66 -126 0 -117 -102 -185 -204 -136 -79 39 -109 144
-61 217 40 61 140 84 199 45z"/>
<path d="M31733 14055 c-39 -18 -60 -36 -82 -70 -67 -106 -49 -218 50 -297 68
-55 209 -52 267 5 25 26 25 27 7 47 -23 25 -29 25 -64 -1 -38 -28 -109 -28
-155 0 -93 58 -85 204 14 253 48 24 89 22 143 -6 l45 -24 24 25 c23 24 23 25
3 40 -75 57 -168 68 -252 28z"/>
<path d="M33858 14059 c-46 -24 -58 -45 -58 -103 0 -66 27 -92 131 -126 71
-22 85 -31 93 -54 23 -63 -84 -85 -163 -33 l-40 27 -21 -30 -21 -29 42 -28
c39 -25 51 -28 132 -28 88 0 89 0 118 33 24 26 29 41 29 81 0 78 -25 100 -153
136 -43 12 -61 22 -69 40 -25 56 56 85 140 49 35 -14 38 -14 54 7 22 26 16 36
-36 60 -54 24 -130 24 -178 -2z"/>
<path d="M34981 14054 c-156 -78 -155 -305 1 -385 73 -37 196 -22 242 30 20
22 20 22 -1 43 l-21 21 -35 -22 c-23 -14 -51 -21 -85 -21 -150 0 -196 204 -62
273 46 24 116 18 159 -13 l32 -22 17 23 c9 13 17 29 17 34 0 6 -24 22 -54 38
-73 36 -138 36 -210 1z"/>
<path d="M35555 14061 c-84 -38 -125 -103 -126 -199 -1 -94 33 -152 115 -194
60 -31 168 -23 224 16 l42 28 -23 28 -22 27 -35 -24 c-25 -17 -49 -23 -87 -23
-44 0 -58 5 -88 31 -140 123 12 326 175 233 l44 -25 18 23 c23 30 23 33 -9 56
-65 45 -159 55 -228 23z"/>
<path d="M36568 14060 c-46 -25 -58 -46 -58 -105 0 -65 34 -97 134 -126 80
-23 102 -43 91 -80 -15 -46 -99 -48 -167 -4 l-37 25 -21 -30 -21 -29 42 -28
c33 -22 56 -28 111 -31 115 -7 168 31 168 118 0 77 -26 100 -153 135 -43 12
-61 23 -69 41 -25 55 56 83 140 48 35 -14 38 -14 54 7 25 30 23 34 -19 55 -57
27 -149 29 -195 4z"/>
<path d="M37070 14062 c-45 -22 -73 -75 -65 -122 8 -50 52 -85 134 -110 104
-31 125 -61 70 -103 -33 -24 -92 -17 -144 18 l-34 24 -21 -26 c-16 -21 -18
-29 -8 -41 25 -29 91 -52 156 -52 104 0 152 40 152 126 0 61 -35 94 -122 118
-81 23 -108 40 -108 71 0 45 75 60 147 30 36 -15 38 -15 55 7 17 22 17 24 -3
40 -47 39 -151 49 -209 20z"/>
<path d="M22862 13918 c3 -172 13 -202 79 -246 29 -20 44 -23 104 -20 54 2 78
9 103 26 57 41 66 70 70 240 l4 152 -36 0 -36 0 0 -112 c0 -62 -5 -131 -10
-152 -12 -54 -50 -90 -94 -90 -91 0 -116 50 -116 229 l0 125 -36 0 -36 0 4
-152z"/>
<path d="M23450 13860 l0 -210 35 0 34 0 3 147 3 148 114 -148 c112 -144 115
-147 153 -147 l38 0 0 210 0 210 -35 0 -34 0 -3 -151 -3 -152 -118 152 c-112
143 -120 151 -152 151 l-35 0 0 -210z"/>
<path d="M24070 13860 l0 -210 130 0 130 0 0 35 0 35 -95 0 -95 0 0 175 0 175
-35 0 -35 0 0 -210z"/>
<path d="M25700 13860 l0 -210 35 0 35 0 0 58 c1 48 5 62 29 90 l29 34 69 -90
c67 -89 69 -91 111 -91 51 -1 54 -11 -46 128 -53 72 -72 108 -66 117 5 7 42
49 83 93 l73 81 -48 -1 c-49 0 -50 -1 -139 -97 l-90 -97 -3 97 -3 98 -34 0
-35 0 0 -210z"/>
<path d="M26467 14058 c4 -7 40 -67 80 -133 l73 -119 0 -78 0 -78 35 0 35 0 0
83 0 83 75 122 c41 67 75 125 75 127 0 3 -17 5 -38 5 -37 0 -39 -2 -91 -90
-29 -49 -56 -90 -60 -90 -3 0 -30 41 -59 90 -53 90 -53 90 -93 90 -30 0 -38
-3 -32 -12z"/>
<path d="M27620 13930 c0 -104 4 -150 15 -177 31 -74 78 -104 160 -104 70 0
120 24 153 74 25 37 26 47 30 193 l4 154 -36 0 -36 0 -1 -97 c-1 -54 -2 -105
-3 -113 -2 -8 -3 -29 -4 -47 -4 -67 -76 -114 -141 -92 -56 20 -66 48 -69 207
l-4 142 -34 0 -34 0 0 -140z"/>
<path d="M28210 13860 l0 -210 35 0 35 0 0 70 0 70 44 0 c43 0 46 -2 95 -70
50 -69 52 -70 97 -70 l45 0 -22 33 c-13 17 -35 48 -51 68 -33 44 -35 55 -7 64
59 19 81 148 33 204 -33 40 -77 51 -201 51 l-103 0 0 -210z m230 130 c36 -19
34 -97 -4 -122 -6 -4 -44 -8 -83 -8 l-73 0 0 76 0 77 71 -7 c39 -3 79 -11 89
-16z"/>
<path d="M29050 13860 l0 -210 35 0 35 0 0 85 0 85 88 0 c49 0 91 2 94 5 2 3
3 18 0 35 l-4 30 -89 0 -89 0 0 55 0 54 103 3 102 3 3 33 3 32 -140 0 -141 0
0 -210z"/>
<path d="M29530 13860 l0 -210 35 0 35 0 0 210 0 210 -35 0 -35 0 0 -210z"/>
<path d="M29830 13860 l0 -210 40 0 39 0 3 146 3 146 113 -146 c112 -144 114
-146 153 -146 l39 0 0 210 0 210 -35 0 -34 0 -3 -152 -3 -153 -105 133 c-58
74 -111 142 -119 153 -9 13 -25 19 -52 19 l-39 0 0 -210z"/>
<path d="M30566 14038 c-7 -18 -48 -111 -90 -205 -42 -95 -76 -175 -76 -178 0
-3 17 -5 38 -5 36 0 39 3 59 49 l20 48 102 2 102 2 22 -50 c20 -49 23 -51 59
-51 21 0 38 2 38 4 0 5 -141 327 -170 389 -11 22 -20 27 -51 27 -34 0 -40 -4
-53 -32z m88 -135 c16 -38 30 -74 33 -80 4 -10 -13 -13 -66 -13 -39 0 -71 2
-71 5 0 14 64 155 70 155 3 0 19 -30 34 -67z"/>
<path d="M31020 13860 l0 -210 35 0 35 0 0 146 c0 122 2 145 13 135 8 -6 61
-72 118 -146 100 -130 105 -135 141 -135 l37 0 3 210 3 210 -37 0 -37 0 -3
-150 -3 -151 -115 150 c-112 145 -116 150 -152 150 l-38 1 0 -210z"/>
<path d="M32200 13860 l0 -210 35 0 35 0 0 210 0 210 -35 0 -35 0 0 -210z"/>
<path d="M32544 13869 c-49 -111 -90 -205 -92 -210 -2 -5 14 -9 36 -9 38 0 41
2 57 42 9 24 22 46 28 50 14 9 153 10 184 2 14 -4 28 -22 40 -50 17 -41 21
-44 56 -44 20 0 37 3 37 8 0 4 -40 97 -89 207 l-88 200 -40 3 -40 3 -89 -202z
m196 -50 c0 -5 -31 -9 -70 -9 -38 0 -70 2 -70 4 0 3 16 40 36 83 l36 78 34
-74 c19 -40 34 -78 34 -82z"/>
<path d="M33070 13860 l0 -210 130 0 130 0 0 35 0 35 -95 0 -95 0 0 175 0 175
-35 0 -35 0 0 -210z"/>
<path d="M34310 13920 c0 -176 11 -210 78 -248 55 -31 146 -31 192 1 70 47 75
61 78 238 l3 159 -35 0 -36 0 0 -130 c0 -155 -11 -193 -64 -215 -44 -19 -88
-10 -118 22 -22 23 -23 34 -26 174 l-3 149 -35 0 -34 0 0 -150z"/>
<path d="M36010 13860 l0 -210 150 0 150 0 0 35 0 35 -115 0 -115 0 0 43 c0
23 4 47 8 54 5 8 42 13 102 15 93 3 95 3 95 28 0 25 -1 25 -100 30 l-100 5 -3
53 -3 52 115 0 116 0 0 35 0 35 -150 0 -150 0 0 -210z"/>
</g>
</svg>
